<svg xmlns="http://www.w3.org/2000/svg" aria-hidden="true" style="position:absolute;width:0;height:0;overflow:hidden"><defs><symbol id="icon-arrow" viewBox="0 0 32 32"><path fill="#e7b10a" d="M25 8v13a.997.997 0 0 1-1 1 .997.997 0 0 1-1-1V10.414L8.707 24.708a1 1 0 1 1-1.414-1.414L21.587 9.001H11.001a.997.997 0 0 1-1-1 .997.997 0 0 1 1-1h13a.997.997 0 0 1 1 1z" style="fill:var(--color1, #e7b10a)"/></symbol><symbol id="icon-check" viewBox="0 0 32 32"><path fill="#a5a5a5" d="m18.701 10.714-11.2 11a1 1 0 0 1-1.402 0L1.299 17A1 1 0 0 1 1 16.295a1 1 0 0 1 .61-.928 1 1 0 0 1 1.091.208L6.8 19.6 17.3 9.287a1.002 1.002 0 0 1 1.622 1.106 1 1 0 0 1-.22.323h-.001zm12.013-1.415a1 1 0 0 0-.705-.3 1 1 0 0 0-.71.287l-10.5 10.313-2.354-2.313a.997.997 0 0 0-1.414.013.997.997 0 0 0 .013 1.414l3.054 3a1 1 0 0 0 1.402 0l11.2-11a1 1 0 0 0 .014-1.415z" style="fill:var(--color2, #a5a5a5)"/></symbol><symbol id="icon-mechanics1" viewBox="0 0 32 32"><path fill="#e7b10a" d="M16 1.148 3.134 8.5 16 15.852 28.866 8.5zm-9.625 10.5L3.134 13.5 16 20.852 28.866 13.5l-3.241-1.852-9.625 5.5zm0 5L3.134 18.5 16 25.852 28.866 18.5l-3.241-1.852-9.625 5.5zm0 5L3.134 23.5 16 30.852 28.866 23.5l-3.241-1.852-9.625 5.5z" style="fill:var(--color1, #e7b10a)"/></symbol><symbol id="icon-mechanics2" viewBox="0 0 32 32"><path fill="#e7b10a" d="m28.217 3.078-4.731.006-2.316 3.971-3.68.008-1.949-3.336-.164-.295-.342-.004-4.732.006-.168.291L8.01 7.37l-4.439.006-.17.291-2.193 3.762-.168.291.174.293 1.945 3.33L.88 19.255l.174.293 2.195 3.756.162.297.344.002 4.238-.008 1.939 3.314.162.297.344.002 4.225-.008 1.949 3.336.164.295.342.004 4.389-.008.332.006.17-.291 2.135-3.648 4.098-.008.332.006.168-.291 2.205-3.766.168-.291-.174-.293-2.195-3.756-.162-.295-.344-.004-4.225.008-1.699-2.906 2.059-3.521 3.846-.008.332.006.168-.291 2.373-4.057-.174-.293-2.195-3.756-.162-.295-.344-.004zm-.334 1.166 1.844 3.193-1.846 3.168-3.717.006-1.852-3.182 1.853-3.182zM7.967 8.535l1.844 3.193-1.846 3.168-3.717.006-1.851-3.182 1.854-3.182zm6.682 3.625 1.783 3.094-1.898 3.258-3.611.006-1.844-3.17 1.854-3.182 3.717-.006zm6.582 3.584 1.836 3.184-1.846 3.17-3.717.004-1.795-3.084 1.91-3.268 3.611-.006zm6.673 3.617 1.844 3.193-1.846 3.168-3.717.004-1.852-3.18 1.854-3.182zm-13.408.325 1.838 3.185-1.846 3.168-3.717.004-1.852-3.182 1.848-3.17z" style="fill:var(--color1, #e7b10a)"/></symbol><symbol id="icon-mechanics3" viewBox="0 0 32 32"><path fill="#e7b10a" d="M16 1.863 1.562 11.488v6.648L16 8.511l14.437 9.625v-6.648zm0 8.003-9.437 6.37v5.643L16 15.509l9.437 6.37v-5.643zm0 7-5.437 3.67v4.225L16 21.136l5.437 3.625v-4.225zm0 5.622-5.437 3.625v4.023L16 26.511l5.437 3.625v-4.023z" style="fill:var(--color1, #e7b10a)"/></symbol><symbol id="icon-mechanics4" viewBox="0 0 32 32"><path fill="#e7b10a" d="m30.094 1.372-2.85.771c.163.331.269.696.306 1.081l2.831-.766-.288-1.086zm-17.457.042L12.5 2.531l8.937 1.065v-.097c0-.356.063-.698.175-1.016zm11.863.148c-1.075 0-1.937.861-1.937 1.937s.862 1.938 1.937 1.938 1.937-.861 1.937-1.938-.862-1.938-1.937-1.938zm-2.737 3.301-4.656 3.431.662.9 4.669-3.436a3 3 0 0 1-.675-.894zm4.618 1.051c-.3.231-.637.411-1.006.518l2.431 4.2.975-.563zM7.994 5.95c-.019.001-.031.001-.044.003-.206.02-.481.217-.737.548a15.5 15.5 0 0 0 .019 3.913l.106.738-.744-.106a3 3 0 0 0-.807-.025l-.547.037-.05-.55a7.7 7.7 0 0 0-.444-1.831c-.213-.181-.358-.213-.486-.2-.116.019-.277.094-.469.281.113 1.175.21 2.306.544 3.431.602.263 1.464.4 2.31.356l.625-.031-.037.625c-.269 4.619-.381 8.913-.063 13.488.506.231.987.344 1.369.344.363 0 .6-.094.75-.219.281-2.669.037-5.194-.113-7.8l-.031-.587.588-.006c.669-.006 1.231-.144 1.619-.337.375-.175.55-.4.581-.488.35-2.412.588-4.537.45-6.831-.006-.137-.044-.181-.113-.237a.56.56 0 0 0-.325-.113c-.137-.012-.287.019-.381.069s-.125.094-.144.15c-.588 1.944-1.081 3.875-1.163 5.919v.006l-1.125-.056v-.006c.169-3.188.037-6.544-.163-9.763-.45-.587-.762-.721-.975-.719zm14.975.2L19.6 15.081l1.05.4 3.375-8.956a3 3 0 0 1-1.056-.375m4.15 6.981v2.988l-.475-.113-.25-1.763-1.113.163.363 2.525 1.475.344v1.288H12.556a2.8 2.8 0 0 1-.713.475c-.425.2-.937.35-1.512.413.156 2.45.362 4.931.056 7.606l-.012.15-.094.125c-.4.531-1.062.763-1.744.763-.687 0-1.431-.206-2.175-.606l-.276-.144-.022-.306c-.214-2.9-.252-5.675-.187-8.475H1.562v11.875h28.875V18.564h-2.194v-2.406l1.437-.331.3-1.55-1.1-.213-.162.825-.475.106v-1.863h-1.125z" style="fill:var(--color1, #e7b10a)"/></symbol><symbol id="icon-menu" viewBox="0 0 32 32"><path d="M4 24v-2.667h24V24zm0-6.667v-2.667h24v2.667zm0-6.666V8h24v2.667z"/></symbol><symbol id="icon-close" viewBox="0 0 32 32"><path d="m8.532 25.333-1.867-1.867 7.467-7.467-7.467-7.467 1.867-1.867 7.467 7.467 7.467-7.467 1.867 1.867-7.467 7.467 7.467 7.467-1.867 1.867-7.467-7.467z"/></symbol><symbol id="icon-mouse" viewBox="0 0 18 26" fill="none">
  <path d="M0.666748 8.66663C0.666748 6.54489 1.5096 4.51006 3.00989 3.00977C4.51019 1.50948 6.54502 0.666626 8.66675 0.666626C10.7885 0.666626 12.8233 1.50948 14.3236 3.00977C15.8239 4.51006 16.6667 6.54489 16.6667 8.66663V16.6666C16.6667 18.7884 15.8239 20.8232 14.3236 22.3235C12.8233 23.8238 10.7885 24.6666 8.66675 24.6666C6.54502 24.6666 4.51019 23.8238 3.00989 22.3235C1.5096 20.8232 0.666748 18.7884 0.666748 16.6666V8.66663Z" stroke="#A5A5A5" stroke-width="1.33333" stroke-linejoin="round" />
  <path d="M8.66675 5.99994V11.3333" stroke="#A5A5A5" stroke-width="1.33333" stroke-linecap="round" stroke-linejoin="round" />
</symbol></defs></svg>